<?xml version="1.0" encoding="utf-8"?>
<!-- Generator: Adobe Illustrator 19.0.0, SVG Export Plug-In . SVG Version: 6.00 Build 0)  -->
<svg version="1.1" id="Layer_1" xmlns="http://www.w3.org/2000/svg" xmlns:xlink="http://www.w3.org/1999/xlink" x="0px" y="0px"
	 viewBox="0 0 612 334" enable-background="new 0 0 612 334" xml:space="preserve">
<g id="XMLID_3_">
	<ellipse id="XMLID_2_" fill="#FFFFFF" cx="370.7" cy="45.9" rx="27.4" ry="27.8"/>
	<ellipse id="XMLID_1_" fill="#FFFFFF" cx="317.6" cy="53.7" rx="27.4" ry="27.8"/>
	<path id="XMLID_232_" fill="#1198D4" d="M369.4,316c-41.5,0-83,0-124.5,0c0.9-0.3,1.9-1.1,2.7-1c6.9,0.6,11.2-2.7,14.7-8.4
		c2.8-4.6,6.5-8.6,9.8-12.9c0.6-0.8,1.4-1.6,2.8-3.2c-6.4,1.3-11.8,2.1-16.7-2.2c7.7-1,13-4.9,15.8-11.8c2.9-7.2,5.6-14.4,8.8-22.7
		c-3.4,3-6.1,5.4-9.3,8.2c0.1-8.8,4.9-14.8,9.4-21c-4.4-1.7-8.7,1.7-13.1-0.7c7.3-6,10.6-13.9,12.8-22.4c0.7-2.7,2.1-5.2,3.3-7.9
		c-3,0.9-6.2,2-9.2,2.9c2.1-6.7,4-12.9,5.9-19.2c0.4-0.1,1.2-0.2,2.8-0.4c-2-3.2-3.4-5.9-5.2-8.3c-5.7-7.5-8.8-15.8-8.3-25.4
		c0.1-1.1-0.3-2.3-0.5-4.5c-3,3.7-5.3,6.5-7.6,9.4c0.5-6.9,0.2-13.3-2.5-19.3c-2.1-4.7-2.9-9.7-2.5-14.9c0.1-0.9,0-1.9,0-2.8
		c-0.3-0.1-0.5-0.1-0.8-0.2c-1.1,1.7-2.3,3.5-3.9,5.8c-2-11.4,1.5-20.5,9.5-28.5c-8.1,0.4-9.5-0.3-10.8-5.4
		c9.7,1,16.7-4.1,23.8-11.2c-3.8,0-6.8,0-10.2,0c5.8-6.9,13.3-8.7,21.7-9.4c-7.1-5.3-7.1-5.3-7.2-6.6c5.4,0.9,10.9,1.9,17.7,3
		c7.1,6.2,16.3,9.2,26.9,6.2c10.5-2.9,17.2-10.2,20.7-21c6.7,9.5,15,14.4,26.2,14.1c11.5-0.3,19.3-6.3,25.1-15.9
		c9.1,0.3,18.2,2.6,26.9-2.4c0.7,4.3-2.2,6.6-3.3,9.5c16.5,1.1,16.6,1.1,19.6,6c-1.3-0.3-2.3-0.7-3.3-0.9c-1.1-0.1-2.2,0-3.3,0
		c6.3,4.4,9.4,12.2,17.4,13.9c-0.1,0.3-0.2,0.6-0.3,0.9c-3.2,0-6.4,0-9.5,0c-0.2,0.3-0.4,0.5-0.6,0.8c12.1,6.2,11.4,16.7,10,27.9
		c-1.5-1.7-2.7-2.9-4.1-4.5c-0.1,1-0.3,1.5-0.1,1.9c1.9,5.3,2.4,10.8,2.3,16.4c-0.1,5.5,1.5,10.7,4.1,15.5c0.5,1,1,2,1.5,3
		c-1.9-0.1-3.3-0.7-4.5-1.5c-1.3-0.9-2.5-2-3.7-3c1.1,4.6,0.1,8.7-1.8,12.4c-1.7,3.4-2.4,6.9-2.6,10.7c-0.2,3.9-1.6,7.3-5,10
		c0-2.4,0-4.9,0-7.3c-3.5,8.7-6.7,17.3-15,22.8c-1.6-3.1,1.5-6.1-0.9-9c-3.4,8.8-8.7,15.8-16.2,21.4c4.9,0.6,8.4-1.8,14.1-9.3
		c8.1-0.1,11-6.5,15-11.9c4.6,1.2,5.2-4.2,8.4-5.7c1.6,10.8,7.1,20,11,29.7c-1,0.2-1.8,0.4-3.1,0.7c2.2,3,3.8,5.9,6,8.2
		c2.3,2.3,5.1,4,8.6,6.6c-4,0-7,0-10.8,0c2.2,4.8,5.4,7.9,7.9,11.6c2.5,3.7,5.4,7.3,6.3,12.5c-1.8-1.1-3.1-1.9-5.2-3.2
		c2.1,5,5.3,7.7,8.9,10c-0.1,0.3-0.3,0.7-0.4,1c-2.3-0.5-4.7-0.9-7.2-1.4c1.1,4.6,3.5,8,7.3,10c3.4,1.7,7.2,2.6,10.8,3.8
		c1.7,0.5,3.3,1,5.4,1.5c-4.6,6.3-11.5,3.1-17.3,5.1c17.2,8.4,23.1,14.1,23.3,22.5c-4.2-0.7-8.3-1.4-13-2.2
		c3.7,6,7.7,10.6,13.4,13.5c6.3,3.3,12.7,2.8,19.5,0.4c-0.8,5-4.2,7.1-7.5,9.3c-21.1,0-42.1,0-63.2,0c4.3-6.4,7.2-13.2,6.6-21.2
		c-0.2-2.4-0.3-4.6-3-5.5c0.7-8.1-0.6-15.1-7.3-19.8c-1.8,4.8-2.8,9.5-5.1,13.5c-2.3,4.1-6.3,6.9-10.3,9.5c-0.4-1.7-0.7-3.1-1.1-4.9
		c-8.1,4.5-15.6,8.7-23.2,12.9c-0.4-3.7-1.5-6.9-5.6-8.6c-3.3,4.4-1.5,11.1-7.4,14.7C380,307.2,374,310.4,369.4,316z M298.5,203.8
		c-4.4-0.7-6.2-4.1-7.9-7.7c-0.8-1.8-1.6-3.5-2.4-5.3c-1.2,5,0.6,11.2,3.9,13.6c2.3,1.6,5.2,2.6,8,3.3c1,0.2,2.3-1.2,3.5-1.9
		c5.9,4.6,8.2,5.4,12.7,4.1c-8-0.8-11-8.6-17.8-12.9c0.4,2.9,0.6,4.5,0.8,6.1C299,203.4,298.7,203.6,298.5,203.8z M295.3,284.7
		c-0.3-0.2-0.6-0.5-0.8-0.7c2.1-5.1,4.3-10.2,6.4-15.3c1.4-3.4,3-6.8,3.9-10.3c1.1-4.7-1.6-8.5-5.9-8.9c3.8,4.1,3.1,8.5,1.1,12.9
		c-1.5,3.5-3.4,6.9-5,10.4c-2.4,5.3-4,10.8-3.5,17.5c3-1.6,5.3-2.8,7.6-4c-2.3,7-6.1,13.3-6.5,21.5c3.2-5.9,6-10.9,8.6-16.1
		c1.5-3.2,2.8-6.5,3.8-9.9c0.6-2.2,0.9-4.6-0.1-7.2C301.4,278.2,298.4,281.4,295.3,284.7z M331.1,120c1-2.1,1.5-3.3,2.1-4.4
		c-0.2-0.3-0.4-0.5-0.6-0.8c-5.3,3.7-10.3,8.3-17.9,8.8c2.2-2.1,3.7-3.5,5.3-5c-0.2-0.3-0.3-0.6-0.5-0.8c-2.6,1.2-5.1,2.4-7.7,3.7
		c-3.7,1.8-7.4,3.9-11.3,5.3c-5.3,1.9-9.4,2-13.3,0.9c1.5-2.1,3.7-3.9,3.6-6.9c-3.8,2.2-7.1,4.9-10.9,6.2c-3.7,1.3-8,1.3-12.7,1.9
		c4.8,3.6,9.6,1.2,13.9,2.2c4.8,3.4,8.1,8,10.8,13.1c2.2,4.1,4.2,8.3,6.6,12.2c12.3,19.8,30.3,29.7,53.5,30.3
		c8.6,0.2,16.9-1.3,25.1-3.8c20.6-6.5,35.3-19,41.6-40.4c2.9-9.9,3.4-20.1,4.3-30.2c0.7-7.9,1.5-9,9-11c3.1-0.9,5.9-2.1,7.4-5.5
		c-3.9,1-7.4,1.9-10.9,2.7c-3.6,0.7-7.3-1.1-11.6,0.2c1.5,1.2,2.2,1.8,3.4,2.7c-10,4.3-19.7,3.8-29.5,0.5c-0.1,0.4-0.2,0.7-0.3,1.1
		c1.8,1.2,3.5,2.4,5.5,3.8c-5.4,2.2-10.5,0.7-15.7,0.2c0.2,1,0.4,1.7,0.6,2.7c-2.7,0-5.4,0.1-8,0c-11.7-0.8-22.7,1.8-33.1,7.1
		C337.5,118.1,334.6,118.8,331.1,120z M417.7,259.2c-2.1,7,2.8,15.1,9.1,15.6c-5.8-7-5.8-7-6-10.5c6.5,1.3,9.3,1,11.5-1.2
		c-3.9-3.7-7.8-7.3-11.7-11.1c0.3,4,3,6.8,5.3,9.7c-0.2,0.3-0.4,0.5-0.6,0.8C422.7,261.4,420.2,260.3,417.7,259.2z M376.7,214.5
		c7.3,3.7,17.7-2.6,20.3-12.2c-3.2,2.7-5.8,5.6-9,7.6C384.7,211.9,380.9,212.9,376.7,214.5z M337.5,213.1c-8.9-1.4-16-6.4-23.7-11.3
		C316.3,209.6,326.7,214.5,337.5,213.1z M424.5,230.2c0-4.5-0.6-9,0.2-13.2c0.7-4.1,2.8-8,4.6-13C421,211.8,419,224.7,424.5,230.2z
		 M359.3,214.3c8.3,3.7,18.6-0.5,19.1-7.9C372.7,211.2,366.5,214,359.3,214.3z M417.1,223.6c-4.5,5.8-2.4,13.2,2.6,13.9
		c-0.7-2.2-1.5-4.4-2-6.8C417.2,228.4,417.2,226,417.1,223.6z"/>
	<path id="XMLID_229_" fill="#1198D4" d="M612,264.9c0,17,0,34.1,0,51.1c-14.3,0-28.5,0-42.8,0c0-2,0-4,0-7c2,2.5,3.4,4.1,5.1,6.2
		c1-4.1,0.2-7.7-0.6-11.2c-1.6-6.3,0.1-12,3.6-18.2c0.7,2.1,1.2,3.5,1.8,5.3c2.4-3.7,1.3-6.9-0.7-10c-1.2-2-2.4-4-3.7-6
		c0.2-0.1,0.4-0.3,0.7-0.4c2.1,1,4.2,2,6.7,3.2c-1.2-5-4.9-6.5-8.4-8.1c-6.7-3.1-11-8.4-13.6-15.1c-0.8-2.1-1.2-4.5-2-6.6
		c-1.9-5.7-5.8-8.9-11.9-9.3c-1-0.1-2-0.3-3.6-0.6c1.6-1.4,2.8-2.4,4.2-3.6c-8-4.2-15-1.6-22.5,1.6c1.2-2.1,2.4-4.2,3.9-6.7
		c-9.2,1.3-16.2,5.7-23.1,11.3c-0.3-5.6,1.6-9.8,4.6-13.4c1-1.2,2.7-2.3,4.2-2.5c6.4-0.9,12.2-3.1,16.2-6.2c4.2,0,7.4,0.6,10.2-0.1
		c10.1-2.3,18.8-7.2,26-15.1c5.5,0.5,11.3,2.4,17.8-0.4c-5.9-1.2-11-2.3-16.6-3.5c1.3-4.6,6.1-6,7.2-9.9c6.2-0.3,12.1-0.3,17.8-1.2
		c3.7-0.6,7.6-1.9,10.6-4c3.3-2.3,5.8-5.8,8.6-8.8c0,27.6,0,55.1,0,82.7c-0.8-1.4-2-2.7-2.5-4.2c-0.9-3.2-1.5-6.6-2.2-9.9
		c-0.1-0.6-0.2-1.2-0.4-1.8c-0.2-0.6-0.6-1.1-0.9-1.6C603.4,250.2,606,258,612,264.9z M591.1,217.6c-0.4-2.9-2.3-6-5.9-7.5
		c-2.3-1-4.9-2.9-7.6-0.5C582.3,212.4,587,215.2,591.1,217.6z"/>
	<path id="XMLID_225_" d="M506,316c3.3-2.2,6.7-4.3,7.5-9.3c-6.8,2.4-13.2,2.8-19.5-0.4c-5.7-3-9.7-7.5-13.4-13.5
		c4.7,0.8,8.8,1.5,13,2.2c-0.2-8.4-6.1-14.2-23.3-22.5c5.9-2,12.7,1.2,17.3-5.1c-2-0.6-3.7-1-5.4-1.5c-3.6-1.2-7.5-2-10.8-3.8
		c-3.8-2-6.2-5.4-7.3-10c2.5,0.5,4.9,0.9,7.2,1.4c0.1-0.3,0.3-0.7,0.4-1c-3.6-2.4-6.8-5-8.9-10c2.1,1.3,3.4,2,5.2,3.2
		c-0.8-5.2-3.8-8.8-6.3-12.5c-2.4-3.7-5.7-6.8-7.9-11.6c3.8,0,6.8,0,10.8,0c-3.5-2.6-6.3-4.3-8.6-6.6c-2.2-2.3-3.8-5.1-6-8.2
		c1.3-0.3,2.1-0.4,3.1-0.7c-4-9.7-9.4-18.8-11-29.7c-3.3,1.5-3.9,6.9-8.4,5.7c-4.1,5.3-7,11.8-15,11.9c-5.6,7.5-9.2,9.9-14.1,9.3
		c7.5-5.6,12.8-12.6,16.2-21.4c2.4,2.8-0.7,5.9,0.9,9c8.2-5.5,11.4-14.1,15-22.8c0,2.4,0,4.9,0,7.3c3.4-2.7,4.8-6.2,5-10
		c0.2-3.8,0.9-7.2,2.6-10.7c1.9-3.7,2.9-7.8,1.8-12.4c1.2,1,2.4,2.1,3.7,3c1.2,0.8,2.6,1.4,4.5,1.5c-0.5-1-1-2-1.5-3
		c-2.5-4.9-4.1-10-4.1-15.5c0.1-5.6-0.4-11.1-2.3-16.4c-0.1-0.4,0-0.9,0.1-1.9c1.4,1.6,2.6,2.9,4.1,4.5c1.4-11.3,2.2-21.7-10-27.9
		c0.2-0.3,0.4-0.5,0.6-0.8c3.2,0,6.4,0,9.5,0c0.1-0.3,0.2-0.6,0.3-0.9c-8-1.7-11.1-9.5-17.4-13.9c1.1,0,2.2-0.1,3.3,0
		c1,0.1,2,0.5,3.3,0.9c-3.1-4.8-3.2-4.8-19.6-6c1.2-2.9,4-5.2,3.3-9.5c-8.7,5-17.8,2.8-26.9,2.4c-5.8,9.6-13.6,15.6-25.1,15.9
		c-11.2,0.3-19.6-4.5-26.2-14.1c-3.5,10.8-10.2,18.1-20.7,21c-10.5,2.9-19.8-0.1-26.9-6.2c-6.7-1.2-12.3-2.1-17.7-3
		c0.1,1.3,0.1,1.3,7.2,6.6c-8.4,0.7-15.9,2.5-21.7,9.4c3.4,0,6.4,0,10.2,0c-7.1,7-14,12.1-23.8,11.2c1.3,5.1,2.7,5.8,10.8,5.4
		c-7.9,8-11.5,17.1-9.5,28.5c1.6-2.4,2.7-4.1,3.9-5.8c0.3,0.1,0.5,0.1,0.8,0.2c0,0.9,0.1,1.9,0,2.8c-0.4,5.2,0.4,10.2,2.5,14.9
		c2.7,6.1,3,12.4,2.5,19.3c2.3-2.8,4.6-5.7,7.6-9.4c0.3,2.2,0.6,3.4,0.5,4.5c-0.5,9.6,2.6,17.9,8.3,25.4c1.8,2.4,3.2,5.1,5.2,8.3
		c-1.6,0.2-2.3,0.3-2.8,0.4c-1.9,6.3-3.9,12.5-5.9,19.2c3-1,6.2-2,9.2-2.9c-1.1,2.7-2.5,5.2-3.3,7.9c-2.3,8.5-5.5,16.4-12.8,22.4
		c4.5,2.4,8.8-1,13.1,0.7c-4.5,6.2-9.3,12.3-9.4,21c3.2-2.8,5.9-5.2,9.3-8.2c-3.2,8.3-5.9,15.5-8.8,22.7
		c-2.8,6.9-8.1,10.7-15.8,11.8c4.9,4.3,10.3,3.5,16.7,2.2c-1.4,1.6-2.1,2.4-2.8,3.2c-3.3,4.3-7,8.3-9.8,12.9
		c-3.5,5.7-7.8,9-14.7,8.4c-0.9-0.1-1.8,0.6-2.7,1c-0.5,0-0.9,0-1.9,0c0-1.5,0-3.1,0-4.6c0.2,0,0.3-0.1,0.5,0
		c7.9,1.7,13.3-1.1,16.7-8.6c1.4-2.9,4.2-5.2,6.5-7.9c-5.4-0.9-10.7-1.9-13.1-8.3c1.8-0.2,3-0.5,4.2-0.5c6.4-0.5,10.4-4.2,13-9.6
		c1.6-3.3,2.8-6.8,4.1-10.2c0.1-0.3,0.2-0.6,0.4-1c-0.4,0-0.8,0-1.1,0c-0.8,0.2-1.6,0.4-2.8,0.8c-1.5-8,0-14.9,5-21.1
		c-7.4-1-7.4-1-10.2-4.4c6.8-6.8,10.9-15.3,13.8-24.4c-0.1-0.4-0.2-0.8-0.3-1.1c-0.2,0.1-0.5,0.3-0.7,0.4c-1.9-0.3-3.9-0.7-6.4-1.1
		c3.1-8.2,6.5-16,5.7-24.8c-6.5-6.5-9.6-14.5-10-24c-3,1.8-5.5,4.4-9.3,2.7c3.2-5.7,2.2-11.4,0.4-17c-1.2-3.8-2.8-7.5-4.2-11.3
		c-0.2-0.6-0.3-1.3-0.7-1.7c-6.2-5.9-5.6-12.9-3.3-20.1c1.1-3.3,3-6.4,4.6-9.9c-4.5-2-6.6-5.9-5.8-11.7c6.3-0.1,12.6-0.4,18-5
		c-2.5-0.4-4.7-0.7-7.4-1.1c4.9-7.1,10.5-11.9,18.4-13.5c-2-5-2-5,0.7-8.9c4.4,2.2,9,3.7,14,2.4c-7.9-18.1-4.9-32.6,8.8-41.1
		c13.3-8.4,27.7-4.9,40.6,9.9c2.7-9,7.9-15.7,16.3-19.5c6.4-2.9,13.2-3.1,19.9-1.2c7.8,2.2,13.5,7.1,17.3,14.3
		c3.8,7.2,4,14.7,1.9,22.7c5.1,0.2,9.9,0.9,14.7,0.5c4.5-0.4,8.9-1.9,13.7-3c2.2,2.6,1.1,5.7,0.4,8.9c2.5,0.5,5.1,0.7,7.6,1.4
		c4.8,1.4,7.8,4.8,9.4,9.5c0.3,1,0,2.2,0,3.6c3.1,4.5,7.5,6.5,13.5,5.2c-0.9,4.3-3.4,6.4-7.2,7.6c7,8.5,6.4,17.6,3.5,26.9
		c-0.9,2.8-1.3,5.4-1.4,8.4c-0.1,8.9,2.3,17,6.5,24.7c-3.4,2.5-6.4,0.8-9.3,0c-6.2,12.4-5.6,25.2-0.9,37.9c2.1,5.6,4.8,11,7,16.6
		c1,2.5,1.4,5.1,1.8,7.8c2,4.2,5.9,6.2,10.2,7.4c-1.3,4.1-1.4,4.2-6.7,6.3c5.2,7,11.3,13.6,10.3,23.6c2.2,0.9,4.4,1.9,6.9,2.9
		c-1.4,3-4.2,3.8-7,4.7c2.1,3.3,3.6,4.2,8.9,5.7c3.5,1,7,1.9,10.5,2.8c-1.1,5.3-1.1,5.3-8.3,9.8c8.8,4.8,13.6,12.2,14.5,22.6
		c-3.1,0-5.8,0-9.4,0c8.7,7.7,17.9,8.9,28,6.3c1.1,5.4-1.6,8.9-4.2,12.5C509.8,316,507.9,316,506,316z M397.3,45.9
		c0-17.9-17.3-30.5-34.3-25c-12.4,4-19.1,15.1-17,28c0.2,1.2,0,2.5,0.3,3.7c0.4,1.9,0.7,4,1.6,5.7c5.7,11,18,16.2,30.3,13.1
		C389.3,68.5,397.3,57.8,397.3,45.9z M317.8,80c12.7,0.1,26-9.5,26.1-26.2c0.1-15.8-12.7-26.5-26.5-26.3
		c-14.7,0.2-26.3,11.9-26.2,26.6C291.5,68.6,303.3,80.1,317.8,80z"/>
	<path id="XMLID_220_" d="M612,175.6c-2.8,3-5.3,6.5-8.6,8.8c-3.1,2.1-6.9,3.5-10.6,4c-5.7,0.9-11.6,0.8-17.8,1.2
		c-1.1,3.9-5.9,5.2-7.2,9.9c5.6,1.2,10.7,2.2,16.6,3.5c-6.5,2.8-12.3,1-17.8,0.4c-7.3,7.9-16,12.8-26,15.1c-2.9,0.7-6,0.1-10.2,0.1
		c-4,3.2-9.8,5.4-16.2,6.2c-1.5,0.2-3.2,1.3-4.2,2.5c-3,3.6-4.9,7.8-4.6,13.4c6.9-5.6,13.9-10,23.1-11.3c-1.5,2.5-2.7,4.6-3.9,6.7
		c7.4-3.2,14.4-5.9,22.5-1.6c-1.4,1.2-2.5,2.2-4.2,3.6c1.7,0.3,2.6,0.5,3.6,0.6c6.1,0.4,10,3.6,11.9,9.3c0.7,2.2,1.1,4.5,2,6.6
		c2.6,6.7,6.9,12,13.6,15.1c3.4,1.6,7.1,3.1,8.4,8.1c-2.5-1.2-4.6-2.2-6.7-3.2c-0.2,0.1-0.4,0.3-0.7,0.4c1.2,2,2.4,4,3.7,6
		c1.9,3.1,3.1,6.3,0.7,10c-0.6-1.8-1.1-3.1-1.8-5.3c-3.6,6.2-5.2,11.8-3.6,18.2c0.9,3.5,1.7,7.1,0.6,11.2c-1.7-2-3.1-3.7-5.1-6.2
		c0,3.1,0,5.1,0,7c-0.9,0-1.9,0-2.8,0c-0.3-3.4-0.6-6.7-1-10.6c1.9,0.4,3.5,0.8,5.6,1.2c-1.8-8.2-1.1-15.9,3.5-22.6
		c-1.4-3.7-2.8-7.1-4.2-10.9c-1.4-0.8-3.3-1.9-5-3.1c-4.7-3.2-7.6-7.5-9.1-13c-0.8-3-1.5-6-2.5-8.9c-1.9-5.1-4.7-7-10.1-7.2
		c-1.5,0-3.1,0-5.5,0c1-2.2,1.7-3.8,2.5-5.6c-7.2-0.3-12.9,3.3-19.7,7.5c0.3-3.5,0.5-5.7,0.7-8.4c-6.7,2.2-12.2,6.2-17.1,11.2
		c-2.3-2.5-2.3-5.5-2.1-8.4c0.4-4.6,1-9.1,1.5-13.7c-4.8-1.9-9-4.4-12.3-8.2c-1.8-2-4.1-3.3-7-4.1c-8.8-2.3-14.5-7.9-15.8-17.3
		c-0.7-4.9-2.5-9.2-5.4-13.5c-7.7-11.2-7.6-24.1,2.6-33.6c0.7-0.6,1.1-1.5,1.6-2.1c-2.1-16.9,8-30.4,24.9-34.3
		c2.8-0.6,5.1-1.9,7.1-4c7.5-7.9,14.8-9.2,24.6-4.3c3.4,1.7,6.8,2.8,10.6,2.6c9.1-0.6,17.1,1.8,23.8,8.9c2.2-7.2,6.7-11.3,14.7-12.1
		c-0.8,8.3-2.5,16.4-0.3,24.4c1.1-0.4,2-0.8,3.2-1.3c2.8,4.3,2.4,10.1,5.9,13.1c4.9-0.8,9.2-2,13.6-2.2c6.2-0.2,11,2.7,13.5,8.7
		c0.5,1.3,0.9,2.7,2.8,2.4c0,0.9,0,1.9,0,2.8c-10.5-1-19.4,2.5-27.3,9.2c1.5-0.2,2.8-0.8,4.2-1.3c1.2-0.5,2.5-0.8,3.8-1.2
		c-5.4,5.9-10.6,11.5-15.8,17.2c0.9,0.3,1.8,0.7,3.1,1.1c-5,4.1-10.3,2-16.1,2.2c1.6,1.8,2.6,3.1,3.8,4.3c4.2,4,9,6.2,14.7,3.8
		c4.5-1.9,8.9-4.1,13.3-6.2c1-0.5,2-0.8,3-1.3c0.2,0.3,0.4,0.7,0.6,1c-2.5,2.1-5,4.2-8,6.8c8.7-1.1,14.4-5.7,19.2-11.7
		c-2.2-6.2-4.9-12.3,1.5-17.4C612,162.6,612,169.1,612,175.6z M530.7,214.7c6,2.8,11.4,1.2,16.7-1.9c2-1.2,3.9-2.7,6-3.4
		c5.3-1.9,8.7-5.8,11.2-10.6c1.3-2.4,2-5.1,3.1-7.8c0.5,0.7,0.9,1.3,1.6,2.4c1-1.8,1.8-3.2,2.6-4.7c-2-1.4-3.5-2.5-5-3.6
		c-1.9,0.6-3.5,1.3-5.1,1.7c-7.5,2.2-14.1,0.2-19.7-4.9c-5.6-5-5.8-13.3-0.7-18.5c2,1.5,4.1,3,5.8,4.2c3.3-1.1,6-2.1,8.7-3
		c1.5-2.1-0.2-3.5-1-5c-5.3-9.3-7.8-19.2-5.1-29.8c1.2-4.8,2.2-10.2,8.4-11.9c-0.6-0.9-1-1.7-1.7-2.3c-4.5-4.7-10.2-7-16.6-6.9
		c-6.1,0.1-11.8-0.6-17.4-3.6c-5.9-3.1-12.3-3-18.1,0.9c-1.9,1.3-3.5,3-5.5,4.3c-1.7,1.2-3.6,2.4-5.6,3c-13.6,4-21.2,12.8-22.9,27.2
		c-0.4,3.7-1.6,7-3.9,10.1c-2.1,2.9-3.5,6.5-4.3,10.1c-1.6,7.1,0.7,13.7,4.5,19.8c1.9,3,3.3,6.2,4.1,9.7c1.9,8.2,6.6,14.5,14.5,18.1
		c2.5,1.1,4.9,2.6,7,4.3C504.3,222,517.7,224.3,530.7,214.7z M606.2,146.4c-0.9-3.4-3.1-5-5.8-5.9c-5.2-1.7-10.4-1.7-15.4,0.5
		c-1.7,0.7-3.1,2.2-5.3,3.7c3.3,0.3,5.6,0.5,7.8,0.7c0.1,0.4,0.1,0.8,0.2,1.1c-11.5,2.4-21.4,7.3-27.6,17.9c2.9-0.9,5.9-1.9,8.8-2.8
		c-4.6,6.2-11.9,5.5-18.3,7.6c1.1,1,1.9,1.6,2.9,2.5c-4.8,1.1-8-2.2-12.1-3.5c-0.5,6.5,2.4,10.7,7.4,13.7c5,2.9,10.3,3.1,15.8,1.4
		c-1.9-3.4-3.6-6.2-5.4-9.5c14.3-0.1,14.3-0.1,23.4-11.6c-0.5-0.8-1-1.6-1.5-2.4C585.5,152.1,593.6,147.7,606.2,146.4z M556,124.3
		c-5.8,8.9-3,28.7,3,35.4c4.4-6.5,10.3-11,17.6-13.5c1.3-2.1,2.5-4,3.3-5.2c-1.7-4.6-3.2-8.6-4.9-13c-0.9,3.1-1.7,5.8-2.5,8.5
		c-3.5-10.5-4.5-20.8-2.2-31.5c-1,0.2-1.4,0.2-1.6,0.3c-5.3,3.4-7.1,8.6-7.9,14.5c-0.8,6.1,0,11.4,5.3,15.2c1.4,1,2.6,2.3,3.6,3.6
		c0.7,0.9,1,2.2,1.5,3.3C564.9,137,557,133.7,556,124.3z"/>
	<path id="XMLID_219_" fill="#1198D4" d="M439.1,316c-18,0-35.9,0-53.9,0c1-1.7,1.8-3.5,3.1-4.9c2.8-3.1,4.7-6.5,5.8-10.4
		c0.3-1,0.6-2,0.9-3c0.3,0,0.6,0.1,0.9,0.1c0,3.1,0,6.3,0,9.8c8.4-5.2,16.2-10.1,24.1-15c0.3,0.3,0.6,0.5,0.9,0.8
		c-0.6,1.9-1.2,3.8-1.8,5.7c0.2,0.1,0.6,0.3,0.7,0.2c4.4-3.1,8.8-6.3,13.1-9.5c3.5-2.7,6.1-6.1,7-10.6c0.2-0.8,0.5-1.5,1.1-3.1
		c4.4,9.2,1.4,17.1-0.2,25.3c1.7-2.1,3.4-4.3,5.5-6.9c-1.2,6.6-3.3,12.1-6,17.5C439.8,313.2,439.5,314.6,439.1,316z"/>
	<path id="XMLID_218_" fill="#1198D4" d="M612,156.1c-6.4,5.2-3.7,11.2-1.5,17.4c-4.8,6-10.5,10.5-19.2,11.7c3.1-2.6,5.5-4.7,8-6.8
		c-0.2-0.3-0.4-0.7-0.6-1c-1,0.4-2,0.8-3,1.3c-4.4,2.1-8.8,4.3-13.3,6.2c-5.7,2.4-10.5,0.2-14.7-3.8c-1.2-1.1-2.2-2.5-3.8-4.3
		c5.8-0.2,11.1,1.9,16.1-2.2c-1.3-0.5-2.2-0.8-3.1-1.1c5.2-5.7,10.4-11.3,15.8-17.2c-1.3,0.4-2.6,0.7-3.8,1.2
		c-1.4,0.5-2.7,1.1-4.2,1.3c7.9-6.7,16.9-10.2,27.3-9.2C612,151.8,612,154,612,156.1z"/>
	<path id="XMLID_217_" d="M439.1,316c0.4-1.4,0.6-2.8,1.3-4c2.8-5.4,4.9-10.9,6-17.5c-2.1,2.6-3.8,4.7-5.5,6.9
		c1.6-8.3,4.6-16.2,0.2-25.3c-0.6,1.7-0.9,2.4-1.1,3.1c-0.9,4.5-3.5,7.9-7,10.6c-4.3,3.3-8.7,6.4-13.1,9.5c-0.1,0.1-0.5-0.1-0.7-0.2
		c0.6-1.9,1.2-3.8,1.8-5.7c-0.3-0.3-0.6-0.5-0.9-0.8c-7.8,4.9-15.7,9.8-24.1,15c0-3.5,0-6.6,0-9.8c-0.3,0-0.6-0.1-0.9-0.1
		c-0.3,1-0.6,2-0.9,3c-1.1,3.9-3,7.4-5.8,10.4c-1.3,1.4-2.1,3.3-3.1,4.9c-5.3,0-10.5,0-15.8,0c4.6-5.6,10.6-8.8,17.1-9.5
		c5.8-3.5,4.1-10.2,7.4-14.7c4.1,1.7,5.1,4.9,5.6,8.6c7.6-4.2,15.1-8.4,23.2-12.9c0.4,1.8,0.7,3.2,1.1,4.9c4-2.6,8-5.4,10.3-9.5
		c2.3-4,3.4-8.7,5.1-13.5c6.7,4.7,8.1,11.7,7.3,19.8c2.7,0.9,2.9,3.1,3,5.5c0.6,7.9-2.3,14.8-6.6,21.2
		C441.6,316,440.4,316,439.1,316z"/>
	<path id="XMLID_216_" d="M612,264.9c-6-6.9-8.6-14.7-6-24c0.3,0.5,0.7,1,0.9,1.6c0.2,0.6,0.3,1.2,0.4,1.8c0.7,3.3,1.3,6.7,2.2,9.9
		c0.4,1.5,1.6,2.8,2.5,4.2C612,260.5,612,262.7,612,264.9z"/>
	<path id="XMLID_214_" d="M331.1,120c3.6-1.3,6.4-2,9-3.3c10.4-5.3,21.4-7.8,33.1-7.1c2.6,0.2,5.2,0,8,0c-0.2-1-0.4-1.7-0.6-2.7
		c5.2,0.5,10.4,2,15.7-0.2c-2-1.4-3.8-2.6-5.5-3.8c0.1-0.4,0.2-0.7,0.3-1.1c9.8,3.3,19.4,3.8,29.5-0.5c-1.2-0.9-1.9-1.5-3.4-2.7
		c4.3-1.3,8.1,0.5,11.6-0.2c3.5-0.7,7-1.7,10.9-2.7c-1.5,3.4-4.3,4.7-7.4,5.5c-7.5,2.1-8.3,3.2-9,11c-0.9,10.1-1.4,20.2-4.3,30.2
		c-6.4,21.4-21,33.9-41.6,40.4c-8.1,2.5-16.5,4-25.1,3.8c-23.2-0.6-41.2-10.5-53.5-30.3c-2.4-3.9-4.4-8.1-6.6-12.2
		c-2.7-5.1-6.1-9.7-10.8-13.1c-4.3-1-9.2,1.4-13.9-2.2c4.8-0.6,9-0.6,12.7-1.9c3.8-1.3,7.1-4,10.9-6.2c0,3-2.1,4.8-3.6,6.9
		c3.8,1.1,8,1,13.3-0.9c3.9-1.4,7.5-3.5,11.3-5.3c2.6-1.2,5.1-2.4,7.7-3.7c0.2,0.3,0.3,0.6,0.5,0.8c-1.5,1.4-3.1,2.9-5.3,5
		c7.6-0.6,12.5-5.2,17.9-8.8c0.2,0.3,0.4,0.5,0.6,0.8C332.6,116.8,332.1,118,331.1,120z"/>
	<path id="XMLID_213_" d="M295.3,284.7c3-3.2,6.1-6.4,9.5-10.1c1,2.6,0.7,5,0.1,7.2c-1,3.4-2.2,6.7-3.8,9.9
		c-2.5,5.2-5.4,10.2-8.6,16.1c0.5-8.2,4.2-14.5,6.5-21.5c-2.3,1.2-4.7,2.5-7.6,4c-0.5-6.7,1.1-12.2,3.5-17.5c1.6-3.5,3.4-6.9,5-10.4
		c1.9-4.4,2.7-8.9-1.1-12.9c4.3,0.4,7,4.2,5.9,8.9c-0.9,3.5-2.5,6.9-3.9,10.3c-2.1,5.1-4.2,10.2-6.4,15.3c0,0.4,0,0.7-0.1,1.1
		C294.7,284.9,295,284.8,295.3,284.7z"/>
	<path id="XMLID_212_" d="M299.2,203.1c-0.2-1.6-0.4-3.3-0.8-6.1c6.8,4.4,9.8,12.1,17.8,12.9c-4.5,1.4-6.7,0.6-12.7-4.1
		c-1.2,0.7-2.6,2.1-3.5,1.9c-2.8-0.7-5.6-1.7-8-3.3c-3.3-2.4-5.1-8.6-3.9-13.6c0.8,1.8,1.6,3.6,2.4,5.3c1.7,3.5,3.5,6.9,7.9,7.7
		c0.2,0.1,0.5,0.3,0.7,0.4C299.2,203.9,299.2,203.5,299.2,203.1z"/>
	<path id="XMLID_211_" d="M417.7,259.2c2.5,1.1,5.1,2.2,7.6,3.3c0.2-0.3,0.4-0.5,0.6-0.8c-2.4-2.9-5.1-5.6-5.3-9.7
		c4,3.7,7.8,7.4,11.7,11.1c-2.2,2.1-5,2.5-11.5,1.2c0.3,3.5,0.3,3.5,6,10.5C420.4,274.3,415.6,266.1,417.7,259.2z"/>
	<path id="XMLID_210_" d="M376.7,214.5c4.2-1.7,8-2.7,11.3-4.6c3.2-1.9,5.8-4.8,9-7.6C394.4,211.9,384,218.3,376.7,214.5z"/>
	<path id="XMLID_209_" d="M337.5,213.1c-10.8,1.4-21.2-3.5-23.7-11.3C321.5,206.7,328.7,211.7,337.5,213.1z"/>
	<path id="XMLID_208_" d="M424.5,230.2c-5.5-5.5-3.5-18.4,4.7-26.3c-1.8,5-3.9,8.9-4.6,13C423.9,221.2,424.5,225.7,424.5,230.2z"/>
	<path id="XMLID_207_" d="M359.3,214.3c7.2-0.2,13.4-3.1,19.1-7.9C377.9,213.7,367.6,217.9,359.3,214.3z"/>
	<path id="XMLID_206_" d="M417.1,223.6c0.2,2.4,0.2,4.8,0.6,7.1c0.4,2.3,1.3,4.6,2,6.8C414.7,236.8,412.6,229.4,417.1,223.6z"/>
	<path id="XMLID_205_" d="M591.1,217.6c-4.2-2.5-8.8-5.2-13.5-8c2.8-2.4,5.3-0.5,7.6,0.5C588.8,211.7,590.8,214.8,591.1,217.6z"/>
	<path id="XMLID_197_" fill="#F59920" d="M530.7,214.7c-13,9.6-26.4,7.3-38.3-2.1c-2.1-1.7-4.5-3.2-7-4.3
		c-7.9-3.6-12.6-9.9-14.5-18.1c-0.8-3.6-2.2-6.7-4.1-9.7c-3.8-6-6.1-12.6-4.5-19.8c0.8-3.5,2.2-7.2,4.3-10.1
		c2.3-3.2,3.5-6.4,3.9-10.1c1.7-14.3,9.2-23.2,22.9-27.2c2-0.6,3.8-1.8,5.6-3c1.9-1.3,3.5-3,5.5-4.3c5.8-3.9,12.2-4,18.1-0.9
		c5.6,3,11.2,3.7,17.4,3.6c6.4-0.1,12.1,2.2,16.6,6.9c0.6,0.6,1,1.5,1.7,2.3c-6.2,1.8-7.2,7.2-8.4,11.9c-2.7,10.6-0.2,20.5,5.1,29.8
		c0.9,1.5,2.6,2.9,1,5c-2.7,0.9-5.4,1.8-8.7,3c-1.7-1.2-3.8-2.7-5.8-4.2c-5.1,5.1-4.9,13.5,0.7,18.5c5.6,5.1,12.2,7,19.7,4.9
		c1.6-0.5,3.2-1.1,5.1-1.7c1.4,1,3,2.2,5,3.6c-0.8,1.5-1.6,2.9-2.6,4.7c-0.7-1.1-1.2-1.7-1.6-2.4c-1,2.7-1.8,5.4-3.1,7.8
		c-2.5,4.8-5.8,8.6-11.2,10.6c-2.1,0.8-4,2.3-6,3.4C542.2,215.9,536.7,217.6,530.7,214.7z M492,176.5c2.1-4.4,2.1-8.6,1.4-12.9
		c-0.6-3.5-3.4-4.6-6.2-5.4c-2.2-0.6-4.3-0.2-5.6,2.1c-1.6,2.9-4.2,5.5-3.1,9.2c0.1,0.5,0.7,1.1,1.2,1.4
		C483.3,173.6,487,175.9,492,176.5z M521.4,150.2c-1.6,3.5-3.1,6.8-4.4,9.7c2.1,4.4,5.8,4.7,9.3,5.1c1.7,0.2,2.9-1.2,2.9-2.9
		c0.1-3.3,0-6.7,0-10.3C526.4,151.2,524.2,150.8,521.4,150.2z M531.9,134.8c0.1,1.4-0.1,3,0.3,4.4c0.6,2.2,1.8,4,4.5,3.9
		c2.6-0.1,5.6,0.9,7.4-1.6c1.8-2.6,0.2-5.3-1-7.8c-0.1-0.3-0.4-0.4-1-0.9C538.9,133,535.3,131.9,531.9,134.8z M515.9,122.7
		c-4.9-1.3-9.6-2.1-14.5,1.3c0.1,1.5,0.3,3,0.4,4.7c4,1,7.6,2,11,2.8C515.5,129.2,516.7,126.8,515.9,122.7z M546.2,189
		c-2.4,2.9-6.5,4-6.8,8.6c3.5,2.8,7.3,2.6,11.1,1.8c1.9-2.8,0.3-5.2-0.1-7.6C549.1,191,547.9,190.2,546.2,189z M507.5,200.5
		c3,2,5.6,4,8.4,2.2c1.5-1,2.9-3.4,2.9-5.2c0-3.1-3-3.7-5.7-4.9C511.3,195.2,509.5,197.6,507.5,200.5z"/>
	<path id="XMLID_196_" fill="#1198D4" d="M606.2,146.4c-12.7,1.3-20.8,5.7-25.1,13.4c0.5,0.7,1,1.6,1.5,2.4
		c-9.1,11.5-9.1,11.5-23.4,11.6c1.9,3.2,3.5,6.1,5.4,9.5c-5.5,1.7-10.8,1.6-15.8-1.4c-5-3-7.9-7.2-7.4-13.7c4,1.2,7.2,4.6,12.1,3.5
		c-1-0.9-1.8-1.5-2.9-2.5c6.4-2.1,13.7-1.4,18.3-7.6c-2.9,0.9-5.9,1.9-8.8,2.8c6.2-10.7,16.1-15.5,27.6-17.9
		c-0.1-0.4-0.1-0.8-0.2-1.1c-2.3-0.2-4.6-0.4-7.8-0.7c2.1-1.5,3.6-3,5.3-3.7c5-2.2,10.2-2.2,15.4-0.5
		C603.2,141.4,605.4,143,606.2,146.4z"/>
	<path id="XMLID_195_" fill="#1198D4" d="M556,124.3c0.9,9.4,8.8,12.7,15.2,17.6c-0.5-1.1-0.8-2.4-1.5-3.3c-1-1.3-2.3-2.6-3.6-3.6
		c-5.3-3.9-6.1-9.2-5.3-15.2c0.8-5.9,2.6-11.1,7.9-14.5c0.2-0.2,0.6-0.1,1.6-0.3c-2.2,10.7-1.3,21.1,2.2,31.5
		c0.8-2.7,1.6-5.4,2.5-8.5c1.7,4.4,3.2,8.4,4.9,13c-0.8,1.2-2,3.1-3.3,5.2c-7.3,2.5-13.2,7-17.6,13.5C553,153,550.2,133.2,556,124.3
		z"/>
	<path id="XMLID_194_" fill="#1198D4" d="M295.3,284.7c-0.3,0.1-0.6,0.3-0.9,0.4c0-0.4,0-0.7,0.1-1.1
		C294.7,284.2,295,284.4,295.3,284.7z"/>
	<path id="XMLID_193_" fill="#1198D4" d="M299.2,203.1c0,0.4,0,0.7,0,1.1c-0.2-0.1-0.5-0.3-0.7-0.4
		C298.7,203.6,299,203.4,299.2,203.1z"/>
	<path id="XMLID_192_" d="M372.3,46.6c0.1,5.6-4.2,10-9.8,10.1c-5.8,0.1-9.9-4-10-9.8c-0.1-5.8,4-10,9.7-10.1
		C367.8,36.7,372.2,41,372.3,46.6z"/>
	<path id="XMLID_191_" d="M335.9,62.2c-0.1,5.4-4.8,9.9-10.2,9.8c-5.4-0.1-10-4.9-9.8-10.3c0.2-5.6,4.7-9.8,10.3-9.7
		C331.7,52.1,336,56.6,335.9,62.2z"/>
	<path id="XMLID_190_" d="M492,176.5c-5-0.6-8.8-2.9-12.3-5.6c-0.5-0.4-1-0.9-1.2-1.4c-1-3.8,1.5-6.4,3.1-9.2
		c1.3-2.3,3.3-2.7,5.6-2.1c2.8,0.8,5.6,1.9,6.2,5.4C494.2,167.9,494.2,172.1,492,176.5z"/>
	<path id="XMLID_189_" d="M521.4,150.2c2.8,0.6,5,1,7.8,1.6c0,3.7,0.1,7,0,10.3c-0.1,1.8-1.2,3.1-2.9,2.9c-3.4-0.4-7.1-0.7-9.3-5.1
		C518.3,157,519.8,153.7,521.4,150.2z"/>
	<path id="XMLID_188_" d="M531.9,134.8c3.4-2.9,7-1.8,10.1-2c0.5,0.5,0.9,0.6,1,0.9c1.2,2.5,2.8,5.2,1,7.8c-1.7,2.5-4.8,1.5-7.4,1.6
		c-2.7,0.1-3.9-1.7-4.5-3.9C531.8,137.8,532,136.2,531.9,134.8z"/>
	<path id="XMLID_187_" d="M515.9,122.7c0.9,4.1-0.4,6.4-3.1,8.8c-3.4-0.9-7-1.8-11-2.8c-0.1-1.7-0.3-3.2-0.4-4.7
		C506.2,120.6,511,121.4,515.9,122.7z"/>
	<path id="XMLID_186_" d="M546.2,189c1.8,1.2,2.9,1.9,4.1,2.8c0.4,2.5,2.1,4.8,0.1,7.6c-3.8,0.8-7.6,1-11.1-1.8
		C539.7,193,543.8,192,546.2,189z"/>
	<path id="XMLID_185_" d="M507.5,200.5c2.1-2.9,3.8-5.4,5.7-7.9c2.7,1.2,5.7,1.9,5.7,4.9c0,1.8-1.4,4.2-2.9,5.2
		C513,204.5,510.5,202.5,507.5,200.5z"/>
</g>
<g id="XMLID_17_">
	<path id="XMLID_19_" fill="#FFFFFF" d="M44.5,192.6v-38.4h9.8v14.4h12.6v-14.4h9.8v38.4h-9.8v-15.4H54.3v15.4H44.5z"/>
	<path id="XMLID_21_" fill="#FFFFFF" d="M113.5,192.6h-8.6v-3.1c-1.6,2.8-5.1,4.1-8.5,4.1c-9.1,0-14.5-7.2-14.5-15.4
		c0-9.5,6.8-15.4,14.5-15.4c4.7,0,7.4,2.3,8.5,4v-3.1h8.6V192.6z M90.5,178.4c0,2.6,2,7.2,7.2,7.2c3.1,0,4.9-1.5,6-3.2
		c0.7-1.1,1.1-2.4,1.2-3.7c0.1-1.3-0.2-2.6-0.7-3.8c-0.9-2-2.9-4-6.5-4C92.7,170.9,90.5,175,90.5,178.4L90.5,178.4z"/>
	<path id="XMLID_24_" fill="#FFFFFF" d="M135.1,192.6h-8.3l-10.3-28.8h8.9l5.6,18l5.6-18h8.9L135.1,192.6z"/>
	<path id="XMLID_26_" fill="#FFFFFF" d="M154.8,181.2c0.4,3.1,3.3,5.1,6.6,5.1c2.8,0,4.2-1.2,5.2-2.7h8.8c-1.4,3.2-3.4,5.7-5.9,7.4
		c-2.4,1.7-5.2,2.6-8.2,2.6c-8.3,0-15.3-6.7-15.3-15.3c0-8,6.3-15.5,15.1-15.5c4.4,0,8.2,1.7,10.9,4.6c3.6,3.9,4.7,8.5,4,13.8H154.8
		z M167.8,174.7c-0.2-1.4-2-4.6-6.4-4.6c-4.5,0-6.2,3.2-6.4,4.6H167.8z"/>
	<path id="XMLID_29_" fill="#FFFFFF" d="M227.6,192.6H219v-3.1c-1.6,2.8-5.1,4.1-8.5,4.1c-9.1,0-14.5-7.2-14.5-15.4
		c0-9.5,6.8-15.4,14.5-15.4c4.7,0,7.4,2.3,8.5,4v-3.1h8.6V192.6z M204.6,178.4c0,2.6,2,7.2,7.2,7.2c3.1,0,4.9-1.5,6-3.2
		c0.7-1.1,1.1-2.4,1.2-3.7c0.1-1.3-0.2-2.6-0.7-3.8c-0.9-2-2.9-4-6.5-4C206.8,170.9,204.6,175,204.6,178.4L204.6,178.4z"/>
	<path id="XMLID_32_" fill="#FFFFFF" d="M73.2,226.2c-1.6,6.5-7.3,11.9-15.1,11.9c-8.7,0-15.4-6.9-15.4-15.4
		c0-8.5,6.6-15.3,15.2-15.3c7.6,0,13.8,5,15.3,12.1h-8.7c-0.9-2-2.6-4.1-6.2-4.1c-2-0.1-3.7,0.7-5,2c-1.2,1.4-1.9,3.2-1.9,5.3
		c0,4.2,2.8,7.3,6.9,7.3c3.6,0,5.3-2.1,6.2-3.8H73.2z"/>
	<path id="XMLID_34_" fill="#FFFFFF" d="M76.6,222.7c0-7,5-15.3,15.5-15.3c10.5,0,15.5,8.3,15.5,15.3c0,7.1-5,15.3-15.5,15.3
		C81.7,238,76.6,229.8,76.6,222.7L76.6,222.7z M85.2,222.8c0,4.2,3.2,7.2,6.9,7.2c3.7,0,6.9-3.1,6.9-7.3c0-4.2-3.2-7.3-6.9-7.3
		C88.4,215.4,85.2,218.5,85.2,222.8L85.2,222.8z"/>
	<path id="XMLID_37_" fill="#FFFFFF" d="M111.2,222.7c0-7,5-15.3,15.5-15.3c10.5,0,15.5,8.3,15.5,15.3c0,7.1-5,15.3-15.5,15.3
		C116.2,238,111.2,229.8,111.2,222.7L111.2,222.7z M119.8,222.8c0,4.2,3.2,7.2,6.9,7.2c3.7,0,6.9-3.1,6.9-7.3c0-4.2-3.2-7.3-6.9-7.3
		C123,215.4,119.8,218.5,119.8,222.8L119.8,222.8z"/>
	<path id="XMLID_40_" fill="#FFFFFF" d="M147.5,198.7h8.6v20l8.1-10.4h10.2L163.6,221l10.5,16.1h-9.8l-8.3-13.9v13.9h-8.6V198.7z"/>
	<path id="XMLID_42_" fill="#FFFFFF" d="M177.8,198.7h8.6v6.5h-8.6V198.7z M177.8,208.3h8.6v28.8h-8.6V208.3z"/>
	<path id="XMLID_45_" fill="#FFFFFF" d="M199.7,225.7c0.4,3.1,3.3,5.1,6.6,5.1c2.8,0,4.2-1.2,5.2-2.7h8.8c-1.4,3.2-3.4,5.7-5.9,7.4
		c-2.4,1.7-5.2,2.6-8.2,2.6c-8.3,0-15.3-6.7-15.3-15.3c0-8,6.3-15.5,15.1-15.5c4.4,0,8.2,1.7,10.9,4.6c3.6,3.9,4.7,8.5,4,13.8H199.7
		z M212.7,219.2c-0.2-1.4-2-4.6-6.4-4.6c-4.5,0-6.2,3.2-6.4,4.6H212.7z"/>
	<path id="XMLID_48_" fill="#FFFFFF" d="M236.2,224.5h-8.9v-25.8h8.9V224.5z M236.2,237.1h-8.9v-8.8h8.9V237.1z"/>
</g>
</svg>
